<?xml version="1.0" encoding="UTF-8" standalone="no"?>
<!-- Created with Inkscape (http://www.inkscape.org/) -->

<svg
   version="1.1"
   id="svg6261"
   xml:space="preserve"
   width="682.66669"
   height="682.66669"
   viewBox="0 0 682.66669 682.66669"
   sodipodi:docname="chateau-de-sable.svg"
   inkscape:version="1.4.2 (ebf0e940, 2025-05-08)"
   xmlns:inkscape="http://www.inkscape.org/namespaces/inkscape"
   xmlns:sodipodi="http://sodipodi.sourceforge.net/DTD/sodipodi-0.dtd"
   xmlns="http://www.w3.org/2000/svg"
   xmlns:svg="http://www.w3.org/2000/svg"><sodipodi:namedview
     id="namedview1"
     pagecolor="#ffffff"
     bordercolor="#000000"
     borderopacity="0.25"
     inkscape:showpageshadow="2"
     inkscape:pageopacity="0.0"
     inkscape:pagecheckerboard="0"
     inkscape:deskcolor="#d1d1d1"
     showgrid="false"
     inkscape:zoom="1.2041015"
     inkscape:cx="341.33334"
     inkscape:cy="341.33334"
     inkscape:window-width="1800"
     inkscape:window-height="1041"
     inkscape:window-x="0"
     inkscape:window-y="44"
     inkscape:window-maximized="1"
     inkscape:current-layer="svg6261" /><defs
     id="defs6265"><clipPath
       clipPathUnits="userSpaceOnUse"
       id="clipPath6275"><path
         d="M 0,512 H 512 V 0 H 0 Z"
         id="path6273" /></clipPath></defs><g
     id="g6269"
     transform="matrix(1.3333333,0,0,-1.3333333,0,682.66667)"><g
       id="g6271"
       clip-path="url(#clipPath6275)"><g
         id="g6277"
         transform="translate(180.958,115.8271)" /><g
         id="g6281"
         transform="translate(344.9707,207.0352)" /><g
         id="g6285"
         transform="translate(206.7295,289.1494)" /><g
         id="g6289"
         transform="translate(275.8506,289.1494)" /><g
         id="g6293"
         transform="translate(344.9707,289.1494)" /><g
         id="g6297"
         transform="translate(313.3701,319.0488)" /><g
         id="g6301"
         transform="translate(256.3418,388.0791)" /><g
         id="g6305"
         transform="translate(256.3418,457.4932)" /><g
         id="g6309"
         transform="translate(46.9136,75.4512)" /><g
         id="g6313"
         transform="translate(85.3682,289.1494)" /><g
         id="g6317"
         transform="translate(167.7119,250.1797)" /><g
         id="g6321"
         transform="translate(7.5,280.2422)" /><g
         id="g6325"
         transform="translate(344.9707,247.0918)" /><g
         id="g6329"
         transform="translate(471.6748,318.4189)" /><g
         id="g6333"
         transform="translate(420.0684,314.6436)" /><g
         id="g6337"
         transform="translate(211.3374,253.1504)" /><g
         id="g6341"
         transform="translate(246.3403,253.1504)" /><g
         id="g6345"
         transform="translate(281.3428,253.1504)" /><g
         id="g6349"
         transform="translate(316.3457,253.1504)" /><g
         id="g6353"
         transform="translate(277.9082,120.959)" /><g
         id="g6357"
         transform="translate(95.082,94.9414)" /><g
         id="g6361"
         transform="translate(132.0732,186.2812)" /><g
         id="g6365"
         transform="translate(204.7031,186.2812)" /><g
         id="g6369"
         transform="translate(307.9805,118.8066)" /><g
         id="g6373"
         transform="translate(344.9707,186.2812)" /><g
         id="g6377"
         transform="translate(417.6006,186.2812)"><path
           id="path6379"
           style="fill:none;stroke:#000000;stroke-width:15;stroke-linecap:round;stroke-linejoin:round;stroke-miterlimit:10;stroke-dasharray:none;stroke-opacity:1"
           d="m 0,0 h -36.99 v 20.754 c 0,3.449 2.797,6.246 6.246,6.246 H -6.246 C -2.797,27 0,24.203 0,20.754 Z m -72.6299,0 h -36.99 v 20.754 c 0,3.449 2.797,6.246 6.246,6.246 h 24.498 c 3.45,0 6.246,-2.797 6.246,-6.246 z m -36.9902,-67.4746 V 4e-4 h 109.617 v -91.339 M -212.8975,0 h -36.991 v 20.754 c 0,3.449 2.797,6.246 6.247,6.246 h 24.497 c 3.45,0 6.247,-2.797 6.247,-6.246 z m -72.6299,0 h -36.991 v 20.754 c 0,3.449 2.797,6.246 6.247,6.246 h 24.497 c 3.45,0 6.247,-2.797 6.247,-6.246 z m -36.9912,-91.3398 V 2e-4 h 109.618 v -67.472 m 73.2082,2.1496 v 92.848 c 0,5.029 -4.077,9.106 -9.106,9.106 h -24.92 c -5.03,0 -9.107,-4.077 -9.107,-9.106 v -92.845 m 81.5705,132.1884 c 0,-4.142 -3.358,-7.5 -7.5,-7.5 -4.143,0 -7.5,3.358 -7.5,7.5 0,4.143 3.357,7.5 7.5,7.5 4.142,0 7.5,-3.357 7.5,-7.5 m -35.0029,0 c 0,-4.142 -3.357,-7.5 -7.5,-7.5 -4.142,0 -7.5,3.358 -7.5,7.5 0,4.143 3.358,7.5 7.5,7.5 4.143,0 7.5,-3.357 7.5,-7.5 m -35.0025,0 c 0,-4.142 -3.358,-7.5 -7.5,-7.5 -4.142,0 -7.5,3.358 -7.5,7.5 0,4.143 3.358,7.5 7.5,7.5 4.142,0 7.5,-3.357 7.5,-7.5 m -35.0029,0 c 0,-4.142 -3.358,-7.5 -7.5,-7.5 -4.142,0 -7.5,3.358 -7.5,7.5 0,4.143 3.358,7.5 7.5,7.5 4.142,0 7.5,-3.357 7.5,-7.5 m 208.731,61.4932 10.447,22.71 32.56,-14.979 -37.353,-81.195 -32.559,14.979 11.66,25.345 m 66.8514,36.9153 -49.759,22.891 c -9.727,4.475 -13.986,15.989 -9.511,25.717 l 5.189,11.28 c 4.826,10.491 17.244,15.084 27.736,10.258 l 46.993,-21.619 c 10.493,-4.827 15.085,-17.245 10.258,-27.736 l -5.188,-11.279 c -4.476,-9.729 -15.99,-13.987 -25.718,-9.512 z M -72.6299,60.8106 c 8.762,13.625 26.439,19.073 41.579,12.108 l 45.786,-21.062 c 16.577,-7.627 23.834,-27.247 16.208,-43.824 l -30.946,-67.269 M -410.1006,93.961 c 0,59.484 48.222,107.706 107.706,107.706 40.344,0 75.508,-22.182 93.96,-55.016 m -41.4541,-82.7525 h -151.305 c -4.919,0 -8.907,3.987 -8.907,8.906 v 21.156 c 0,4.919 3.988,8.908 8.907,8.908 h 33.907 m 35.0543,-3e-4 h 82.344 M -370.687,-110.83 -396.401,63.899 m 235.1422,207.313 h 49.613 c 4.054,0 7.34,-3.286 7.34,-7.34 v -15.77 c 0,-4.054 -3.286,-7.34 -7.34,-7.34 h -49.613 z m 0,-69.4141 v 69.414 m 57.0283,-138.4443 -44.333,62.473 c -6.205,8.744 -19.186,8.744 -25.392,0 l -44.326,-62.464 m 145.6516,-29.9084 h -39.018 v 23.433 c 0,3.576 2.9,6.475 6.476,6.475 h 26.067 c 3.577,0 6.475,-2.899 6.475,-6.475 z m -69.1201,0 h -39.018 v 23.433 c 0,3.576 2.899,6.475 6.475,6.475 h 26.068 c 3.576,0 6.475,-2.899 6.475,-6.475 z m -69.1211,0 h -39.018 v 23.433 c 0,3.576 2.899,6.475 6.476,6.475 h 26.067 c 3.576,0 6.475,-2.899 6.475,-6.475 z M -72.6299,20.754 v 82.114 h -177.259 V 20.754 m 13.2463,-91.2081 c 24.494,3.672 49.681,5.586 75.384,5.586 85.286,0 164.895,-21.068 232.339,-57.533 4.548,-2.459 2.786,-9.373 -2.384,-9.373 h -459.91 c -5.171,0 -6.933,6.914 -2.385,9.373 36.664,19.823 76.922,35.095 119.734,44.907" /></g></g></g></svg>
