<?xml version="1.0" encoding="UTF-8"?>
<svg width="512" height="512" viewBox="0 0 512 512" fill="none" xmlns="http://www.w3.org/2000/svg">
  <rect width="512" height="512" rx="128" fill="#1E40AF"/>
  <path d="M256 96L352 160V416H160V160L256 96Z" fill="white"/>
  <path d="M208 160H304V416H208V160Z" fill="#93C5FD"/>
  <path d="M224 192H288V256H224V192Z" fill="#1E40AF"/>
  <path d="M224 288H288V352H224V288Z" fill="#1E40AF"/>
  <path d="M160 160H208V192H160V160Z" fill="#BFDBFE"/>
  <path d="M304 160H352V192H304V160Z" fill="#BFDBFE"/>
  <path d="M176 128H208V160H176V128Z" fill="white"/>
  <path d="M240 128H272V160H240V128Z" fill="white"/>
  <path d="M304 128H336V160H304V128Z" fill="white"/>
  <path d="M192 64L208 96H176L192 64Z" fill="white"/>
  <path d="M256 32L272 96H240L256 32Z" fill="white"/>
  <path d="M320 64L336 96H304L320 64Z" fill="white"/>
</svg> 