<?xml version="1.0" encoding="UTF-8" standalone="no"?>
<svg version="1.1" xml:space="preserve" width="32" height="32" viewBox="0 0 682.66669 682.66669" xmlns="http://www.w3.org/2000/svg">
  <style>
    path {
      stroke: currentColor;
      fill: none;
      stroke-width: 30;
      stroke-linecap: round;
      stroke-linejoin: round;
    }
    .filled {
      fill: currentColor;
    }
  </style>
  <g transform="matrix(1.3333333,0,0,-1.3333333,0,682.66667)">
    <g>
      <path d="m -72.6299,20.754 v 82.114 h -177.259 V 20.754 m 13.2463,-91.2081 c 24.494,3.672 49.681,5.586 75.384,5.586 85.286,0 164.895,-21.068 232.339,-57.533 4.548,-2.459 2.786,-9.373 -2.384,-9.373 h -459.91 c -5.171,0 -6.933,6.914 -2.385,9.373 36.664,19.823 76.922,35.095 119.734,44.907"/>
      <path d="M -212.8975,0 h -36.991 v 20.754 c 0,3.449 2.797,6.246 6.247,6.246 h 24.497 c 3.45,0 6.247,-2.797 6.247,-6.246 z"/>
      <path d="m -285.5274,0 h -36.991 v 20.754 c 0,3.449 2.797,6.246 6.247,6.246 h 24.497 c 3.45,0 6.247,-2.797 6.247,-6.246 z"/>
      <path d="m -322.5186,-91.3398 V 2e-4 h 109.618 v -67.472"/>
      <path d="m -139.3104,-65.3224 v 92.848 c 0,5.029 -4.077,9.106 -9.106,9.106 h -24.92 c -5.03,0 -9.107,-4.077 -9.107,-9.106 v -92.845"/>
      <path d="m 0,0 h -36.99 v 20.754 c 0,3.449 2.797,6.246 6.246,6.246 H -6.246 C -2.797,27 0,24.203 0,20.754 Z"/>
      <path d="m -72.6299,0 h -36.99 v 20.754 c 0,3.449 2.797,6.246 6.246,6.246 h 24.498 c 3.45,0 6.246,-2.797 6.246,-6.246 z"/>
      <path d="m -109.6201,-67.4746 V 4e-4 h 109.617 v -91.339"/>
      <path d="m 66.8514,36.9153 -49.759,22.891 c -9.727,4.475 -13.986,15.989 -9.511,25.717 l 5.189,11.28 c 4.826,10.491 17.244,15.084 27.736,10.258 l 46.993,-21.619 c 10.493,-4.827 15.085,-17.245 10.258,-27.736 l -5.188,-11.279 c -4.476,-9.729 -15.99,-13.987 -25.718,-9.512 z"/>
      <path d="M -72.6299,60.8106 c 8.762,13.625 26.439,19.073 41.579,12.108 l 45.786,-21.062 c 16.577,-7.627 23.834,-27.247 16.208,-43.824 l -30.946,-67.269"/>
      <path d="M -410.1006,93.961 c 0,59.484 48.222,107.706 107.706,107.706 40.344,0 75.508,-22.182 93.96,-55.016"/>
      <path d="m -41.4541,-82.7525 h -151.305 c -4.919,0 -8.907,3.987 -8.907,8.906 v 21.156 c 0,4.919 3.988,8.908 8.907,8.908 h 33.907"/>
      <path d="m 35.0543,-3e-4 h 82.344"/>
      <path d="M -370.687,-110.83 -396.401,63.899"/>
      <path d="m 235.1422,207.313 h 49.613 c 4.054,0 7.34,-3.286 7.34,-7.34 v -15.77 c 0,-4.054 -3.286,-7.34 -7.34,-7.34 h -49.613 z"/>
      <path d="m 235.1422,137.8989 v 69.414"/>
      <path d="m 313.3701,319.0488 -44.333,62.473 c -6.205,8.744 -19.186,8.744 -25.392,0 l -44.326,-62.464"/>
      <circle cx="203.8374" cy="253.1504" r="15" class="filled"/>
      <circle cx="238.8403" cy="253.1504" r="15" class="filled"/>
      <circle cx="273.8428" cy="253.1504" r="15" class="filled"/>
      <circle cx="308.8457" cy="253.1504" r="15" class="filled"/>
    </g>
  </g>
</svg> 